<svg width="151" height="132" viewBox="0 0 151 132" fill="none" xmlns="http://www.w3.org/2000/svg">
<g style="mix-blend-mode:color-dodge">
<path d="M2.00909 130.168C2.3974 131.807 5.10258 131.209 5.51677 129.392C6.40339 125.481 7.83365 121.569 9.76222 117.773C14.2018 109.024 21.2819 100.895 30.4976 94.7857C32.9375 93.1666 35.4226 91.7584 37.9401 90.5543C44.9231 87.2072 52.1002 85.4317 58.902 85.1936C64.6878 84.9759 70.2211 85.8671 75.1331 87.8059C80.0516 89.7583 84.3553 92.7788 87.7077 96.8198C97.5124 107.446 116.436 107.793 132.24 96.5885C148.167 85.3024 155.247 65.7439 148.387 51.9952C144.691 44.5936 137.792 40.1512 129.625 38.8791C129.379 38.8383 129.146 38.8111 128.907 38.7702L129.852 38.1444C132.363 29.7223 131.884 21.137 127.839 14.0755C121.244 2.56493 107.026 -1.63248 92.4062 2.2384C92.102 2.32003 91.7978 2.40166 91.4872 2.4969C79.3786 5.83035 67.1729 11.3407 55.5109 19.0689C26.7958 38.1103 7.80776 66.3426 1.9379 94.3707C-0.152463 104.317 -0.579595 114.242 0.792411 123.719C1.10305 125.896 1.5043 128.045 2.00909 130.168Z" fill="url(#paint0_radial_291_1282)" style="mix-blend-mode:color-burn"/>
</g>
<defs>
<radialGradient id="paint0_radial_291_1282" cx="0" cy="0" r="1" gradientUnits="userSpaceOnUse" gradientTransform="translate(-18.7659 116.842) rotate(-19.9573) scale(124.62 129.548)">
<stop stop-color="white" stop-opacity="0"/>
<stop offset="1" stop-color="white"/>
</radialGradient>
</defs>
</svg>
