<svg width="173" height="103" viewBox="0 0 173 103" fill="none" xmlns="http://www.w3.org/2000/svg">
<path d="M21.0515 43.9237C23.6507 40.5912 26.6029 37.5933 29.8503 34.9501L27.3538 36.9576C31.3328 33.7523 35.6905 31.1157 40.3114 29.068C39.3294 29.503 38.3475 29.9313 37.3656 30.3662C42.2817 28.2182 47.448 26.746 52.7363 26.0032C51.6453 26.1571 50.5542 26.311 49.4568 26.4649C54.437 25.7958 59.4686 25.7757 64.4488 26.4649C63.3578 26.311 62.2668 26.1571 61.1693 26.0032C66.3164 26.746 71.2582 28.3119 76.0459 30.4064C75.0639 29.9714 74.082 29.5432 73.1001 29.1082C78.7028 31.5841 84.0232 34.669 89.3757 37.6669C95.4855 41.0931 101.711 44.3185 108.244 46.7811C111.068 47.8451 113.962 48.7016 116.915 49.2571C120.714 49.9664 124.61 50.475 128.48 50.4348C135.116 50.3612 141.983 49.1567 148.189 46.654C152.123 45.068 155.993 43.288 159.548 40.8991C163.065 38.5436 166.422 35.7999 169.393 32.7217C171.633 30.4064 173 26.92 173 23.6343C173 20.3487 171.659 16.7151 169.393 14.5469C167.044 12.2985 163.964 10.6323 160.678 10.7862C157.405 10.9401 154.331 12.0978 151.962 14.5469C150.672 15.8853 149.312 17.13 147.881 18.301C148.715 17.6318 149.543 16.9627 150.377 16.2935C147.155 18.8832 143.632 21.0112 139.884 22.664C140.866 22.2291 141.848 21.8008 142.83 21.3658C138.973 23.0321 134.936 24.1764 130.796 24.7652C131.887 24.6113 132.978 24.4574 134.076 24.3035C130.039 24.8522 125.97 24.8589 121.94 24.2968C123.031 24.4507 124.122 24.6046 125.219 24.7585C120.387 24.0425 115.734 22.5034 111.241 20.5361C112.223 20.971 113.205 21.3993 114.187 21.8343C99.702 15.4236 86.6802 5.05803 70.9886 1.79246C66.7849 0.91584 62.4529 0.347038 58.1594 0.253354C53.7311 0.159669 49.3605 0.701696 44.9836 1.39764C37.449 2.59546 30.107 5.39931 23.3747 9.09315C19.1839 11.3884 15.3909 14.2726 11.7071 17.3575C8.73566 19.8468 6.02091 22.664 3.61423 25.7489C2.41409 26.9133 1.56052 28.2918 1.06635 29.8844C0.296208 31.4168 -0.0567731 33.063 0.00740517 34.8363C0.00740517 37.9881 1.34873 41.7556 3.61423 43.9237C5.87972 46.0919 9.04371 47.8384 12.3296 47.6845C15.3974 47.544 19.0234 46.5201 21.0451 43.9237H21.0515Z" fill="white"/>
<path d="M20.9298 96.1153C23.514 92.7119 26.4491 89.6502 29.6778 86.9507C28.8483 87.6342 28.0252 88.3176 27.1957 89.001C31.1517 85.7274 35.4842 83.0348 40.0784 80.9435C39.1021 81.3878 38.1259 81.8251 37.1496 82.2694C42.0372 80.0756 47.1737 78.5721 52.4315 77.8135C51.3467 77.9707 50.262 78.1279 49.1709 78.2851C54.1223 77.6016 59.1248 77.5811 64.0763 78.2851C62.9916 78.1279 61.9068 77.9707 60.8157 77.8135C65.9331 78.5721 70.8463 80.1713 75.6063 82.3104C74.63 81.8662 73.6538 81.4288 72.6775 80.9845C78.2479 83.5132 83.5375 86.6637 88.8591 89.7254C94.9335 93.2245 101.123 96.5185 107.618 99.0335C110.426 100.12 113.304 100.995 116.239 101.562C120.016 102.287 123.889 102.806 127.737 102.765C134.335 102.69 141.162 101.46 147.332 98.9036C151.243 97.2839 155.091 95.4661 158.626 93.0263C162.123 90.6207 165.46 87.8187 168.414 84.675C170.641 82.3104 172 78.7498 172 75.3942C172 72.0387 170.666 68.3277 168.414 66.1135C166.079 63.8172 163.016 62.1155 159.749 62.2727C156.495 62.4299 153.438 63.6122 151.084 66.1135C149.801 67.4803 148.449 68.7515 147.026 69.9474C147.855 69.264 148.678 68.5806 149.508 67.8972C146.305 70.542 142.802 72.7152 139.075 74.4033C140.052 73.9591 141.028 73.5217 142.004 73.0775C138.169 74.7792 134.156 75.9478 130.04 76.5492C131.125 76.392 132.21 76.2348 133.301 76.0776C129.287 76.638 125.242 76.6449 121.235 76.0708C122.32 76.228 123.404 76.3852 124.495 76.5424C119.691 75.8111 115.065 74.2393 110.598 72.23C111.574 72.6742 112.551 73.1116 113.527 73.5559C99.1257 67.0088 86.1791 56.4227 70.5783 53.0876C66.3989 52.1924 62.0919 51.6115 57.8232 51.5158C53.4205 51.4201 49.0752 51.9737 44.7235 52.6844C37.2325 53.9077 29.933 56.7712 23.2396 60.5437C19.073 62.8878 15.302 65.8333 11.6394 68.9838C8.68515 71.5261 5.98611 74.4033 3.59333 77.5538C2.40013 78.743 1.5515 80.1508 1.06018 81.7773C0.294496 83.3423 -0.056445 85.0235 0.00736237 86.8346C0.00736237 90.0534 1.34093 93.9011 3.59333 96.1153C5.92868 98.4116 8.99143 100.113 12.2584 99.9561C15.3084 99.8126 18.9135 98.767 20.9234 96.1153H20.9298Z" fill="white"/>
</svg>
