<svg width="38" height="38" viewBox="0 0 38 38" fill="none" xmlns="http://www.w3.org/2000/svg">
<rect width="38" height="38" rx="10" fill="white"/>
<path d="M7.62109 27.9531C7.70703 27.8281 7.80469 27.6445 7.91406 27.4023C8.02344 27.1523 8.10938 26.8398 8.17188 26.4648C8.25781 25.918 8.35156 25.3047 8.45312 24.625C8.5625 23.9375 8.67188 23.2188 8.78125 22.4688C8.89844 21.7188 9.01172 20.9531 9.12109 20.1719C9.23828 19.3828 9.34766 18.6094 9.44922 17.8516C9.55859 17.0859 9.66016 16.3516 9.75391 15.6484C9.85547 14.9375 9.94531 14.2891 10.0234 13.7031C10.1016 13.1172 10.1641 12.6094 10.2109 12.1797C10.2656 11.7422 10.3047 11.4141 10.3281 11.1953H11.8164L19.1875 24.9766L26.5 11.1953H27.6133L29.5352 25.1172C29.5898 25.5547 29.6484 25.9297 29.7109 26.2422C29.7734 26.5547 29.8359 26.8242 29.8984 27.0508C29.9609 27.2695 30.0195 27.4531 30.0742 27.6016C30.1367 27.7422 30.1953 27.8594 30.25 27.9531V28H27.2969V27.9531C27.3359 27.8672 27.3711 27.7266 27.4023 27.5312C27.4414 27.3359 27.4609 27.1016 27.4609 26.8281C27.4609 26.7266 27.457 26.625 27.4492 26.5234C27.4414 26.4141 27.4297 26.2969 27.4141 26.1719L25.9258 14.9453L19.0117 27.9531L18.2031 27.8594L11.2422 14.8281C10.9688 16.6797 10.7305 18.3906 10.5273 19.9609C10.4414 20.6328 10.3555 21.3047 10.2695 21.9766C10.1836 22.6406 10.1055 23.2617 10.0352 23.8398C9.97266 24.418 9.92188 24.9297 9.88281 25.375C9.84375 25.8125 9.82422 26.1367 9.82422 26.3477C9.82422 26.6133 9.83203 26.8477 9.84766 27.0508C9.86328 27.2539 9.87891 27.4258 9.89453 27.5664C9.91797 27.7305 9.94141 27.875 9.96484 28H7.62109V27.9531Z" fill="#1E1E1E"/>
</svg>
