<svg width="38" height="38" viewBox="0 0 38 38" fill="none" xmlns="http://www.w3.org/2000/svg">
<rect width="38" height="38" rx="10" fill="white"/>
<path d="M16.4523 28V27.9531C16.468 27.9141 16.4797 27.8555 16.4875 27.7773C16.4953 27.6992 16.4992 27.6289 16.4992 27.5664C16.4992 27.3242 16.4641 27.0586 16.3938 26.7695C16.3313 26.4727 16.2063 26.1055 16.0188 25.668L14.6008 22.4805C14.1633 22.4648 13.5813 22.457 12.8547 22.457C12.1281 22.457 11.343 22.457 10.4992 22.457C9.88203 22.457 9.28438 22.457 8.70625 22.457C8.13594 22.457 7.62031 22.4648 7.15938 22.4805L5.81172 25.5742C5.69453 25.8633 5.56953 26.1797 5.43672 26.5234C5.30391 26.8672 5.2375 27.2148 5.2375 27.5664C5.2375 27.668 5.24531 27.7539 5.26094 27.8242C5.27656 27.8867 5.29219 27.9297 5.30781 27.9531V28H2.91719V27.9531C3.05781 27.8047 3.23359 27.543 3.44453 27.168C3.65547 26.7852 3.88594 26.3086 4.13594 25.7383L10.8508 10.8438H11.7883L18.1516 25.1641C18.3 25.5 18.4523 25.8281 18.6086 26.1484C18.7727 26.4609 18.925 26.7422 19.0656 26.9922C19.2063 27.2422 19.3313 27.4531 19.4406 27.625C19.55 27.7969 19.6242 27.9062 19.6633 27.9531V28H16.4523ZM8.85859 21.4492C9.31172 21.4492 9.77656 21.4492 10.2531 21.4492C10.7297 21.4414 11.1945 21.4375 11.6477 21.4375C12.1086 21.4297 12.55 21.4258 12.9719 21.4258C13.3938 21.418 13.7766 21.4102 14.1203 21.4023L10.8273 13.9609L7.59297 21.4492H8.85859ZM28.8953 28.2109C28.0281 28.2109 27.2156 28.0742 26.4578 27.8008C25.7 27.5273 25.0398 27.1289 24.4773 26.6055C23.9148 26.0742 23.4695 25.4219 23.1414 24.6484C22.8211 23.8672 22.6609 22.9766 22.6609 21.9766C22.6609 21.0938 22.8094 20.2773 23.1063 19.5273C23.4031 18.7695 23.8133 18.1133 24.3367 17.5586C24.8602 17.0039 25.4695 16.5703 26.1648 16.2578C26.868 15.9453 27.6258 15.7891 28.4383 15.7891C29.243 15.7891 29.9891 15.9297 30.6766 16.2109C31.3641 16.4844 31.9578 16.8867 32.4578 17.418C32.9656 17.9414 33.3641 18.5938 33.6531 19.375C33.95 20.1484 34.1102 21.0312 34.1336 22.0234C33.2508 22.0078 32.368 21.9961 31.4852 21.9883C30.6023 21.9805 29.6844 21.9766 28.7313 21.9766C28.0516 21.9766 27.3875 21.9805 26.7391 21.9883C26.0984 21.9961 25.5203 22.0078 25.0047 22.0234C25.0516 22.8359 25.1766 23.5703 25.3797 24.2266C25.5906 24.8828 25.8758 25.4453 26.2352 25.9141C26.6023 26.375 27.0438 26.7305 27.5594 26.9805C28.0828 27.2305 28.6727 27.3555 29.3289 27.3555C29.782 27.3555 30.2078 27.3047 30.6063 27.2031C31.0125 27.0938 31.3797 26.9453 31.7078 26.7578C32.0359 26.5703 32.3289 26.3516 32.5867 26.1016C32.8445 25.8438 33.0633 25.5664 33.243 25.2695L33.3836 25.3398L32.5164 27.4258C32.0945 27.6445 31.5906 27.832 31.0047 27.9883C30.4188 28.1367 29.7156 28.2109 28.8953 28.2109ZM27.3367 21.0625C28.118 21.0625 28.8992 21.0625 29.6805 21.0625C30.4695 21.0547 31.1844 21.0391 31.825 21.0156C31.7547 20.3359 31.6219 19.7266 31.4266 19.1875C31.2313 18.6484 30.9813 18.1914 30.6766 17.8164C30.3719 17.4414 30.0125 17.1523 29.5984 16.9492C29.1844 16.7461 28.7273 16.6445 28.2273 16.6445C27.7742 16.6445 27.3563 16.7461 26.9734 16.9492C26.5984 17.1445 26.2703 17.4297 25.9891 17.8047C25.7078 18.1797 25.4813 18.6406 25.3094 19.1875C25.1375 19.7266 25.0359 20.3438 25.0047 21.0391C25.3563 21.0547 25.7273 21.0625 26.118 21.0625C26.5086 21.0625 26.9148 21.0625 27.3367 21.0625Z" fill="#1E1E1E"/>
</svg>
