<svg width="38" height="38" viewBox="0 0 38 38" fill="none" xmlns="http://www.w3.org/2000/svg">
<rect width="38" height="38" rx="10" fill="white"/>
<rect x="17.6365" y="5.69636" width="14" height="1.49308" rx="0.746541" transform="rotate(35 17.6365 5.69636)" fill="#1E1E1E" stroke="#1E1E1E"/>
<rect x="8.84424" y="11.7322" width="14" height="1.49308" rx="0.746541" fill="#1E1E1E" stroke="#1E1E1E"/>
<rect x="4.70323" y="23.6431" width="17.3837" height="1.49308" rx="0.746541" transform="rotate(-39 4.70323 23.6431)" fill="#1E1E1E" stroke="#1E1E1E"/>
<path d="M33.0837 20.5C33.0837 25.7467 28.6066 30 23.0837 30C17.5609 30 13.0837 25.7467 13.0837 20.5C13.0837 15.2533 17.5609 11 23.0837 11C28.6066 11 33.0837 15.2533 33.0837 20.5Z" fill="#1E1E1E"/>
<path d="M28.0837 19.5C28.0837 21.9853 25.8452 24 23.0837 24C20.3223 24 18.0837 21.9853 18.0837 19.5C18.0837 17.0147 20.3223 15 23.0837 15C25.8452 15 28.0837 17.0147 28.0837 19.5Z" fill="white"/>
<path d="M32.5837 20.5C32.5837 25.4467 28.3549 29.5 23.0837 29.5C17.8126 29.5 13.5837 25.4467 13.5837 20.5C13.5837 15.5533 17.8126 11.5 23.0837 11.5C28.3549 11.5 32.5837 15.5533 32.5837 20.5ZM27.5837 19.5C27.5837 21.6609 25.6199 23.5 23.0837 23.5C20.5476 23.5 18.5837 21.6609 18.5837 19.5C18.5837 17.3391 20.5476 15.5 23.0837 15.5C25.6199 15.5 27.5837 17.3391 27.5837 19.5ZM23.0837 24.5C26.0705 24.5 28.5837 22.3097 28.5837 19.5C28.5837 16.6903 26.0705 14.5 23.0837 14.5C20.097 14.5 17.5837 16.6903 17.5837 19.5C17.5837 22.3097 20.097 24.5 23.0837 24.5Z" stroke="#1E1E1E"/>
</svg>
