<svg width="38" height="38" viewBox="0 0 38 38" fill="none" xmlns="http://www.w3.org/2000/svg">
<rect width="38" height="38" rx="10" fill="white"/>
<path d="M9.13984 27.9531C9.18672 27.7891 9.22969 27.5859 9.26875 27.3438C9.30781 27.1016 9.34297 26.8008 9.37422 26.4414C9.40547 26.082 9.42891 25.6562 9.44453 25.1641C9.46016 24.6641 9.46797 24.082 9.46797 23.418V15.7891C9.46797 15.125 9.46016 14.5469 9.44453 14.0547C9.42891 13.5547 9.40547 13.125 9.37422 12.7656C9.34297 12.3984 9.30781 12.0938 9.26875 11.8516C9.22969 11.6094 9.18672 11.4062 9.13984 11.2422V11.1953H11.9406V11.2422C11.8938 11.4062 11.8469 11.6094 11.8 11.8516C11.7609 12.0938 11.7258 12.3984 11.6945 12.7656C11.6711 13.125 11.6477 13.5547 11.6242 14.0547C11.6086 14.5469 11.6008 15.125 11.6008 15.7891V23.418C11.6008 24.082 11.6086 24.6641 11.6242 25.1641C11.6477 25.6562 11.6711 26.082 11.6945 26.4414C11.7258 26.8008 11.7609 27.1016 11.8 27.3438C11.8469 27.5859 11.8938 27.7891 11.9406 27.9531V28H9.13984V27.9531ZM23.282 15.7891C23.6023 15.7891 23.9227 15.8164 24.243 15.8711C24.5633 15.9258 24.8758 16.0039 25.1805 16.1055C25.4852 16.207 25.7742 16.332 26.0477 16.4805C26.3211 16.6289 26.5672 16.7969 26.7859 16.9844V15.0625C26.7859 14.3984 26.7781 13.8203 26.7625 13.3281C26.7469 12.8281 26.7234 12.3984 26.6922 12.0391C26.6609 11.6797 26.6258 11.3789 26.5867 11.1367C26.5477 10.8945 26.5047 10.6914 26.4578 10.5273V10.4805H29.1648V10.5273C29.118 10.6914 29.0711 10.8945 29.0242 11.1367C28.9852 11.3789 28.95 11.6797 28.9187 12.0391C28.8953 12.3984 28.8719 12.8281 28.8484 13.3281C28.8328 13.8203 28.825 14.3984 28.825 15.0625V23.418C28.825 24.082 28.8328 24.6641 28.8484 25.1641C28.8719 25.6562 28.8953 26.082 28.9187 26.4414C28.95 26.8008 28.9852 27.1016 29.0242 27.3438C29.0711 27.5859 29.118 27.7891 29.1648 27.9531V28H26.575V27.9531C26.5984 27.8906 26.618 27.8008 26.6336 27.6836C26.6492 27.5586 26.6687 27.4062 26.6922 27.2266C26.2937 27.4766 25.7937 27.7031 25.1922 27.9062C24.5906 28.1094 23.8914 28.2109 23.0945 28.2109C22.1648 28.2109 21.3211 28.0664 20.5633 27.7773C19.8055 27.4883 19.157 27.0742 18.618 26.5352C18.0867 25.9961 17.6766 25.3438 17.3875 24.5781C17.0984 23.8047 16.9539 22.9375 16.9539 21.9766C16.9539 21.0938 17.1102 20.2773 17.4227 19.5273C17.7352 18.7695 18.1727 18.1133 18.7352 17.5586C19.2977 17.0039 19.9656 16.5703 20.7391 16.2578C21.5125 15.9453 22.3602 15.7891 23.282 15.7891ZM26.7859 19.0469C26.4734 18.2266 26.0242 17.6211 25.4383 17.2305C24.8602 16.8398 24.2078 16.6445 23.4812 16.6445C22.8719 16.6445 22.3094 16.7539 21.7937 16.9727C21.2781 17.1836 20.8367 17.4922 20.4695 17.8984C20.1023 18.3047 19.8133 18.8047 19.6023 19.3984C19.3992 19.9844 19.2977 20.6523 19.2977 21.4023C19.2977 22.2461 19.3914 23.0312 19.5789 23.7578C19.7664 24.4844 20.0398 25.1172 20.3992 25.6562C20.7664 26.1875 21.2195 26.6055 21.7586 26.9102C22.2977 27.207 22.9187 27.3555 23.6219 27.3555C23.9891 27.3555 24.3328 27.3125 24.6531 27.2266C24.9734 27.1406 25.2664 27.0312 25.532 26.8984C25.7977 26.7656 26.032 26.6211 26.2352 26.4648C26.4383 26.3008 26.6062 26.1406 26.7391 25.9844C26.7547 25.6484 26.7664 25.2656 26.7742 24.8359C26.782 24.4062 26.7859 23.9336 26.7859 23.418V19.0469Z" fill="#1E1E1E"/>
</svg>
