<svg width="38" height="39" viewBox="0 0 38 39" fill="none" xmlns="http://www.w3.org/2000/svg">
<rect width="38" height="38" rx="10" fill="white"/>
<path d="M18.0489 3.92705C18.3483 3.00574 19.6517 3.00574 19.9511 3.92705L23.0413 13.4377C23.1751 13.8497 23.5591 14.1287 23.9923 14.1287H33.9924C34.9611 14.1287 35.3639 15.3683 34.5802 15.9377L26.4899 21.8156C26.1395 22.0702 25.9928 22.5216 26.1267 22.9336L29.2169 32.4443C29.5162 33.3656 28.4617 34.1317 27.678 33.5623L19.5878 27.6844C19.2373 27.4298 18.7627 27.4298 18.4122 27.6844L10.322 33.5623C9.53826 34.1317 8.48378 33.3656 8.78314 32.4443L11.8733 22.9336C12.0072 22.5216 11.8605 22.0702 11.5101 21.8156L3.41982 15.9377C2.63611 15.3683 3.03889 14.1287 4.00761 14.1287H14.0077C14.4409 14.1287 14.8249 13.8497 14.9587 13.4377L18.0489 3.92705Z" fill="#1E1E1E"/>
</svg>
