<svg width="38" height="38" viewBox="0 0 38 38" fill="none" xmlns="http://www.w3.org/2000/svg">
<rect width="38" height="38" rx="10" fill="white"/>
<path d="M20.0664 25.5742C20.0664 26.6289 19.957 27.543 19.7383 28.3164C19.5273 29.0898 19.2266 29.7734 18.8359 30.3672C18.4531 30.9688 17.9961 31.5039 17.4648 31.9727C16.9414 32.4414 16.3672 32.9023 15.7422 33.3555L15.5312 33.0625C16.0703 32.5703 16.4961 32.0586 16.8086 31.5273C17.1289 30.9961 17.3711 30.4258 17.5352 29.8164C17.707 29.2148 17.8164 28.5664 17.8633 27.8711C17.9102 27.168 17.9336 26.4023 17.9336 25.5742V15.7891C17.9336 15.125 17.9258 14.5469 17.9102 14.0547C17.8945 13.5547 17.8711 13.125 17.8398 12.7656C17.8086 12.3984 17.7695 12.0938 17.7227 11.8516C17.6836 11.6094 17.6406 11.4062 17.5938 11.2422V11.1953H20.4062V11.2422C20.3594 11.4062 20.3125 11.6094 20.2656 11.8516C20.2266 12.0938 20.1914 12.3984 20.1602 12.7656C20.1289 13.125 20.1055 13.5547 20.0898 14.0547C20.0742 14.5469 20.0664 15.125 20.0664 15.7891V25.5742Z" fill="#1E1E1E"/>
</svg>
