<svg width="47" height="49" viewBox="0 0 47 49" fill="none" xmlns="http://www.w3.org/2000/svg">
<path d="M45.3758 21.1198C45.3758 10.2883 35.5851 1.50977 23.4616 1.50977C11.3381 1.50977 1.54736 10.2883 1.54736 21.1198C1.54736 31.9513 10.4182 39.8803 21.6874 40.6944C21.9503 40.6944 22.1474 40.9422 22.1474 41.2254C22.0817 43.3846 21.9174 45.9686 21.5232 46.6765C20.8332 47.9508 22.8045 47.1367 24.8415 46.0394C26.8785 44.9421 35.6836 38.4644 39.9548 34.0043C40.0533 33.8982 40.1847 33.792 40.2833 33.6504C43.4045 30.2523 45.3101 25.8984 45.3101 21.1552L45.3758 21.1198Z" stroke="white" stroke-opacity="0.847059" stroke-width="2.5" stroke-miterlimit="10"/>
<path d="M8.77567 15.4922H10.8127C10.977 15.4922 11.1412 15.6338 11.1412 15.8462V23.9521C11.1412 24.1291 11.2726 24.3061 11.4698 24.3061H15.0181C15.1824 24.3061 15.3467 24.4477 15.3467 24.66V26.8547C15.3467 27.0317 15.2152 27.2086 15.0181 27.2086H8.80853C8.64425 27.2086 8.47998 27.0671 8.47998 26.8547V15.8816C8.47998 15.7046 8.6114 15.5276 8.80853 15.5276L8.77567 15.4922Z" fill="white" fill-opacity="0.847059"/>
<path d="M16.9897 15.4922H19.0267C19.191 15.4922 19.3552 15.6338 19.3552 15.8462V26.8193C19.3552 26.9963 19.2238 27.1732 19.0267 27.1732H16.9897C16.8254 27.1732 16.6611 27.0317 16.6611 26.8193V15.8462C16.6611 15.6692 16.7926 15.4922 16.9897 15.4922Z" fill="white" fill-opacity="0.847059"/>
<path d="M21.5889 15.4922H23.7245C23.7245 15.4922 23.9545 15.563 23.9874 15.6692L26.7472 20.8372C26.9114 21.1557 27.3385 21.0141 27.3385 20.6602V15.8462C27.3385 15.6692 27.47 15.4922 27.6671 15.4922H29.7041C29.8684 15.4922 30.0327 15.6338 30.0327 15.8462V26.8193C30.0327 26.9963 29.9012 27.1732 29.7041 27.1732H27.5357C27.5357 27.1732 27.3057 27.1024 27.2728 26.9963L24.513 21.8637C24.3488 21.5451 23.9216 21.6867 23.9216 22.0407V26.8193C23.9216 26.9963 23.7902 27.1732 23.5931 27.1732H21.5561C21.3918 27.1732 21.2275 27.0317 21.2275 26.8193V15.8462C21.2275 15.6692 21.359 15.4922 21.5561 15.4922H21.5889Z" fill="white" fill-opacity="0.847059"/>
<path d="M32.0038 15.4922H38.542C38.7062 15.4922 38.8705 15.6338 38.8705 15.8462V17.6514C38.8705 17.8284 38.7391 18.0054 38.542 18.0054H34.6979C34.5337 18.0054 34.3694 18.147 34.3694 18.3594V19.5275C34.3694 19.7045 34.5008 19.8814 34.6979 19.8814H38.2134C38.3777 19.8814 38.542 20.023 38.542 20.2354V21.9345C38.542 22.1115 38.4105 22.2884 38.2134 22.2884H34.6979C34.5337 22.2884 34.3694 22.43 34.3694 22.6424V24.2353C34.3694 24.4123 34.5008 24.5893 34.6979 24.5893H38.6734C38.8377 24.5893 39.0019 24.7308 39.0019 24.9432V26.8901C39.0019 27.0671 38.8705 27.244 38.6734 27.244H32.0038C31.8396 27.244 31.6753 27.1025 31.6753 26.8901V15.917C31.6753 15.74 31.8067 15.563 32.0038 15.563V15.4922Z" fill="white" fill-opacity="0.847059"/>
</svg>
