<svg width="38" height="38" viewBox="0 0 38 38" fill="none" xmlns="http://www.w3.org/2000/svg">
<rect width="38" height="38" rx="10" fill="white"/>
<path d="M11.718 26.9688C12.6398 26.9688 13.4875 26.9297 14.2609 26.8516C15.0344 26.7734 15.7102 26.6836 16.2883 26.582C16.9602 26.4727 17.5734 26.3438 18.1281 26.1953L17.7883 28.0938C17.6945 28.0859 17.5539 28.0781 17.3664 28.0703C17.1789 28.0625 16.968 28.0547 16.7336 28.0469C16.507 28.0391 16.2648 28.0312 16.007 28.0234C15.757 28.0234 15.5188 28.0195 15.2922 28.0117C15.0656 28.0117 14.8625 28.0078 14.6828 28C14.5109 28 14.3859 28 14.3078 28H9.24531V27.9531C9.29219 27.7891 9.33516 27.5859 9.37422 27.3438C9.42109 27.1016 9.46016 26.8008 9.49141 26.4414C9.52266 26.082 9.54609 25.6562 9.56172 25.1641C9.57734 24.6641 9.58516 24.082 9.58516 23.418V15.7891C9.58516 15.125 9.57734 14.5469 9.56172 14.0547C9.54609 13.5547 9.52266 13.125 9.49141 12.7656C9.46016 12.3984 9.42109 12.0938 9.37422 11.8516C9.33516 11.6094 9.29219 11.4062 9.24531 11.2422V11.1953H12.0578V11.2422C12.0109 11.4062 11.9641 11.6094 11.9172 11.8516C11.8781 12.0938 11.843 12.3984 11.8117 12.7656C11.7883 13.125 11.7648 13.5547 11.7414 14.0547C11.7258 14.5469 11.718 15.125 11.718 15.7891V26.9688ZM22.8133 20.582C22.8133 19.918 22.8016 19.3398 22.7781 18.8477C22.7625 18.3477 22.7391 17.918 22.7078 17.5586C22.6844 17.1992 22.6492 16.8984 22.6023 16.6562C22.5633 16.4141 22.5203 16.2109 22.4734 16.0469V16H25.1805V16.0469C25.118 16.2266 25.0633 16.4453 25.0164 16.7031C24.9773 16.9609 24.9461 17.293 24.9227 17.6992C25.2117 17.457 25.5125 17.2188 25.825 16.9844C26.1375 16.75 26.4578 16.543 26.7859 16.3633C27.1141 16.1836 27.4461 16.0391 27.782 15.9297C28.1258 15.8203 28.4695 15.7656 28.8133 15.7656C29.0242 15.7656 29.2078 15.7773 29.3641 15.8008C29.5203 15.8164 29.6609 15.8438 29.7859 15.8828C29.9109 15.9141 30.0242 15.9531 30.1258 16C30.2273 16.0391 30.325 16.0781 30.4188 16.1172L29.8445 18.3555L29.6453 18.3086C29.5516 17.9648 29.3758 17.6914 29.118 17.4883C28.8602 17.2773 28.5086 17.1719 28.0633 17.1719C27.8211 17.1719 27.5672 17.2148 27.3016 17.3008C27.0359 17.3867 26.7664 17.5078 26.493 17.6641C26.2195 17.8125 25.9461 17.9883 25.6727 18.1914C25.3992 18.3867 25.1336 18.5938 24.8758 18.8125C24.8602 19.0391 24.8523 19.2852 24.8523 19.5508C24.8523 19.8164 24.8523 20.0977 24.8523 20.3945V23.418C24.8523 24.082 24.8602 24.6641 24.8758 25.1641C24.8914 25.6562 24.9148 26.082 24.9461 26.4414C24.9773 26.8008 25.0125 27.1016 25.0516 27.3438C25.0906 27.5859 25.1336 27.7891 25.1805 27.9531V28H22.4734V27.9531C22.5203 27.7891 22.5633 27.5859 22.6023 27.3438C22.6492 27.1016 22.6844 26.8008 22.7078 26.4414C22.7391 26.082 22.7625 25.6562 22.7781 25.1641C22.8016 24.6641 22.8133 24.082 22.8133 23.418V20.582Z" fill="#1E1E1E"/>
</svg>
