<svg width="38" height="38" viewBox="0 0 38 38" fill="none" xmlns="http://www.w3.org/2000/svg">
<rect width="38" height="38" rx="10" fill="white"/>
<path d="M20.0617 28V27.9531C20.0773 27.9141 20.0891 27.8555 20.0969 27.7773C20.1047 27.6992 20.1086 27.6289 20.1086 27.5664C20.1086 27.3242 20.0734 27.0586 20.0031 26.7695C19.9406 26.4727 19.8156 26.1055 19.6281 25.668L18.2102 22.4805C17.7727 22.4648 17.1906 22.457 16.4641 22.457C15.7375 22.457 14.9523 22.457 14.1086 22.457C13.4914 22.457 12.8938 22.457 12.3156 22.457C11.7453 22.457 11.2297 22.4648 10.7688 22.4805L9.42109 25.5742C9.30391 25.8633 9.17891 26.1797 9.04609 26.5234C8.91328 26.8672 8.84688 27.2148 8.84688 27.5664C8.84688 27.668 8.85469 27.7539 8.87031 27.8242C8.88594 27.8867 8.90156 27.9297 8.91719 27.9531V28H6.52656V27.9531C6.66719 27.8047 6.84297 27.543 7.05391 27.168C7.26484 26.7852 7.49531 26.3086 7.74531 25.7383L14.4602 10.8438H15.3977L21.7609 25.1641C21.9094 25.5 22.0617 25.8281 22.218 26.1484C22.382 26.4609 22.5344 26.7422 22.675 26.9922C22.8156 27.2422 22.9406 27.4531 23.05 27.625C23.1594 27.7969 23.2336 27.9062 23.2727 27.9531V28H20.0617ZM12.468 21.4492C12.9211 21.4492 13.3859 21.4492 13.8625 21.4492C14.3391 21.4414 14.8039 21.4375 15.257 21.4375C15.718 21.4297 16.1594 21.4258 16.5813 21.4258C17.0031 21.418 17.3859 21.4102 17.7297 21.4023L14.4367 13.9609L11.2023 21.4492H12.468ZM27.325 20.582C27.325 19.918 27.3133 19.3398 27.2898 18.8477C27.2742 18.3477 27.2508 17.918 27.2195 17.5586C27.1961 17.1992 27.1609 16.8984 27.1141 16.6562C27.075 16.4141 27.032 16.2109 26.9852 16.0469V16H29.6922V16.0469C29.6453 16.2109 29.6023 16.4141 29.5633 16.6562C29.5242 16.8984 29.4891 17.1992 29.4578 17.5586C29.4266 17.918 29.4031 18.3477 29.3875 18.8477C29.3719 19.3398 29.3641 19.918 29.3641 20.582V23.418C29.3641 24.082 29.3719 24.6641 29.3875 25.1641C29.4031 25.6562 29.4266 26.082 29.4578 26.4414C29.4891 26.8008 29.5242 27.1016 29.5633 27.3438C29.6023 27.5859 29.6453 27.7891 29.6922 27.9531V28H26.9852V27.9531C27.032 27.7891 27.075 27.5859 27.1141 27.3438C27.1609 27.1016 27.1961 26.8008 27.2195 26.4414C27.2508 26.082 27.2742 25.6562 27.2898 25.1641C27.3133 24.6641 27.325 24.082 27.325 23.418V20.582ZM27.0789 12.4492C27.0789 12.2773 27.1102 12.1172 27.1727 11.9688C27.243 11.8125 27.3328 11.6797 27.4422 11.5703C27.5516 11.4531 27.6805 11.3633 27.8289 11.3008C27.9852 11.2305 28.1531 11.1953 28.3328 11.1953C28.5125 11.1953 28.6766 11.2305 28.825 11.3008C28.9813 11.3633 29.1141 11.4531 29.2234 11.5703C29.3406 11.6797 29.4305 11.8125 29.493 11.9688C29.5633 12.1172 29.5984 12.2773 29.5984 12.4492C29.5984 12.8086 29.4773 13.1094 29.2352 13.3516C28.993 13.5938 28.6922 13.7148 28.3328 13.7148C28.1531 13.7148 27.9852 13.6836 27.8289 13.6211C27.6805 13.5508 27.5516 13.4609 27.4422 13.3516C27.3328 13.2344 27.243 13.1016 27.1727 12.9531C27.1102 12.7969 27.0789 12.6289 27.0789 12.4492Z" fill="#1E1E1E"/>
</svg>
