<svg width="38" height="38" viewBox="0 0 38 38" fill="none" xmlns="http://www.w3.org/2000/svg">
<rect width="38" height="38" rx="10" fill="white"/>
<path d="M26.1484 13.7734L26.043 13.8203C25.4336 13.2578 24.6992 12.8086 23.8398 12.4727C22.9883 12.1367 22.0508 11.9688 21.0273 11.9688C20.043 11.9688 19.1406 12.125 18.3203 12.4375C17.5 12.7422 16.793 13.1875 16.1992 13.7734C15.6133 14.3594 15.1562 15.0781 14.8281 15.9297C14.5 16.7812 14.3359 17.75 14.3359 18.8359C14.3359 20.0312 14.4922 21.1484 14.8047 22.1875C15.1172 23.2188 15.582 24.1133 16.1992 24.8711C16.8164 25.6289 17.5859 26.2266 18.5078 26.6641C19.4375 27.0938 20.5195 27.3086 21.7539 27.3086C22.1992 27.3086 22.6445 27.2617 23.0898 27.168C23.5352 27.0742 23.9609 26.9375 24.3672 26.7578C24.7812 26.5703 25.168 26.3477 25.5273 26.0898C25.8945 25.8242 26.2266 25.5234 26.5234 25.1875L26.6523 25.2695L25.7148 27.6602C25.1289 27.8867 24.4805 28.0586 23.7695 28.1758C23.0664 28.3008 22.3555 28.3633 21.6367 28.3633C20.1914 28.3633 18.8672 28.1562 17.6641 27.7422C16.4688 27.3203 15.4375 26.7266 14.5703 25.9609C13.7109 25.1953 13.0391 24.2773 12.5547 23.207C12.0781 22.1289 11.8398 20.9336 11.8398 19.6211C11.8398 18.8789 11.9336 18.1484 12.1211 17.4297C12.3164 16.7109 12.5977 16.0273 12.9648 15.3789C13.332 14.7305 13.7852 14.1367 14.3242 13.5977C14.8633 13.0508 15.4766 12.5781 16.1641 12.1797C16.8594 11.7812 17.6211 11.4727 18.4492 11.2539C19.2852 11.0273 20.1875 10.9141 21.1562 10.9141C22.6641 10.9141 24.0625 11.1445 25.3516 11.6055L26.1484 13.7734Z" fill="#1E1E1E"/>
</svg>
