<svg width="38" height="38" viewBox="0 0 38 38" fill="none" xmlns="http://www.w3.org/2000/svg">
<rect width="38" height="38" rx="10" fill="white"/>
<path d="M23.5703 19.9609C23.2578 19.9531 22.8672 19.9492 22.3984 19.9492C21.9297 19.9414 21.418 19.9336 20.8633 19.9258C20.3164 19.918 19.7422 19.9141 19.1406 19.9141C18.5469 19.9062 17.9648 19.9023 17.3945 19.9023C16.8242 19.8945 16.2812 19.8945 15.7656 19.9023C15.25 19.9102 14.8008 19.9219 14.418 19.9375V23.418C14.418 24.082 14.4258 24.6641 14.4414 25.1641C14.4648 25.6562 14.4883 26.082 14.5117 26.4414C14.543 26.8008 14.5781 27.1016 14.6172 27.3438C14.6641 27.5859 14.7109 27.7891 14.7578 27.9531V28H11.9453V27.9531C11.9922 27.7891 12.0352 27.5859 12.0742 27.3438C12.1211 27.1016 12.1602 26.8008 12.1914 26.4414C12.2227 26.082 12.2461 25.6562 12.2617 25.1641C12.2773 24.6641 12.2852 24.082 12.2852 23.418V15.7891C12.2852 15.125 12.2773 14.5469 12.2617 14.0547C12.2461 13.5547 12.2227 13.125 12.1914 12.7656C12.1602 12.3984 12.1211 12.0938 12.0742 11.8516C12.0352 11.6094 11.9922 11.4062 11.9453 11.2422V11.1953H14.7578V11.2422C14.7109 11.4062 14.6641 11.6094 14.6172 11.8516C14.5781 12.0938 14.543 12.3984 14.5117 12.7656C14.4883 13.125 14.4648 13.5547 14.4414 14.0547C14.4258 14.5469 14.418 15.125 14.418 15.7891V18.7891C14.8242 18.8047 15.2852 18.8164 15.8008 18.8242C16.3164 18.8242 16.8555 18.8242 17.418 18.8242C17.9805 18.8164 18.5508 18.8086 19.1289 18.8008C19.7148 18.793 20.2773 18.7852 20.8164 18.7773C21.3633 18.7617 21.8711 18.7461 22.3398 18.7305C22.8164 18.7148 23.2266 18.6992 23.5703 18.6836V15.7891C23.5703 15.125 23.5586 14.5469 23.5352 14.0547C23.5195 13.5547 23.4961 13.125 23.4648 12.7656C23.4414 12.3984 23.4062 12.0938 23.3594 11.8516C23.3203 11.6094 23.2773 11.4062 23.2305 11.2422V11.1953H26.043V11.2422C25.9961 11.4062 25.9492 11.6094 25.9023 11.8516C25.8633 12.0938 25.8281 12.3984 25.7969 12.7656C25.7656 13.125 25.7422 13.5547 25.7266 14.0547C25.7109 14.5469 25.7031 15.125 25.7031 15.7891V23.418C25.7031 24.082 25.7109 24.6641 25.7266 25.1641C25.7422 25.6562 25.7656 26.082 25.7969 26.4414C25.8281 26.8008 25.8633 27.1016 25.9023 27.3438C25.9492 27.5859 25.9961 27.7891 26.043 27.9531V28H23.2305V27.9531C23.2773 27.7891 23.3203 27.5859 23.3594 27.3438C23.4062 27.1016 23.4414 26.8008 23.4648 26.4414C23.4961 26.082 23.5195 25.6562 23.5352 25.1641C23.5586 24.6641 23.5703 24.082 23.5703 23.418V19.9609Z" fill="#1E1E1E"/>
</svg>
