<svg width="38" height="38" viewBox="0 0 38 38" fill="none" xmlns="http://www.w3.org/2000/svg">
<rect width="38" height="38" rx="10" fill="white"/>
<path d="M11.5422 20.5586C12.3078 20.6992 13.007 20.7148 13.6398 20.6055C14.2805 20.4883 14.8273 20.2461 15.2805 19.8789C15.7414 19.5039 16.0969 19 16.3469 18.3672C16.6047 17.7344 16.7336 16.9609 16.7336 16.0469C16.7336 15.4141 16.6672 14.8398 16.5344 14.3242C16.4016 13.8008 16.2023 13.3594 15.9367 13C15.6789 12.6328 15.3508 12.3516 14.9523 12.1562C14.5539 11.9531 14.0891 11.8516 13.5578 11.8516C13.2219 11.8516 12.9289 11.8672 12.6789 11.8984C12.4289 11.9219 12.218 11.9492 12.0461 11.9805C11.843 12.0195 11.675 12.0625 11.5422 12.1094V20.5586ZM9.06953 11.1953C9.22578 11.2109 9.38984 11.2266 9.56172 11.2422C9.71016 11.2578 9.87422 11.2695 10.0539 11.2773C10.2414 11.2773 10.4328 11.2773 10.6281 11.2773C10.9328 11.2773 11.343 11.2422 11.8586 11.1719C12.382 11.0938 13.0461 11.0547 13.8508 11.0547C14.6008 11.0547 15.2922 11.1641 15.925 11.3828C16.5656 11.6016 17.1203 11.9219 17.5891 12.3438C18.0578 12.7656 18.4211 13.2812 18.6789 13.8906C18.9445 14.4922 19.0773 15.1797 19.0773 15.9531C19.0773 16.9922 18.8703 17.8906 18.4563 18.6484C18.0422 19.4062 17.4875 20.0195 16.7922 20.4883C16.0969 20.957 15.2961 21.2773 14.3898 21.4492C13.4836 21.6133 12.5344 21.6211 11.5422 21.4727V23.418C11.5422 24.082 11.55 24.6641 11.5656 25.1641C11.5891 25.6562 11.6125 26.082 11.6359 26.4414C11.6672 26.8008 11.7023 27.1016 11.7414 27.3438C11.7883 27.5859 11.8352 27.7891 11.882 27.9531V28H9.06953V27.9531C9.11641 27.7891 9.15938 27.5859 9.19844 27.3438C9.24531 27.1016 9.28438 26.8008 9.31563 26.4414C9.34688 26.082 9.37031 25.6562 9.38594 25.1641C9.40156 24.6641 9.40938 24.082 9.40938 23.418V15.7891C9.40938 15.125 9.40156 14.5469 9.38594 14.0547C9.37031 13.5547 9.34688 13.125 9.31563 12.7656C9.28438 12.3984 9.24531 12.0938 9.19844 11.8516C9.15938 11.6094 9.11641 11.4062 9.06953 11.2422V11.1953ZM29.2 18.3555L29.0359 18.3789C28.9813 18.1992 28.8914 18.0078 28.7664 17.8047C28.6492 17.6016 28.493 17.4141 28.2977 17.2422C28.1102 17.0703 27.8797 16.9297 27.6063 16.8203C27.3406 16.7031 27.032 16.6445 26.6805 16.6445C26.4383 16.6445 26.2078 16.6797 25.9891 16.75C25.7781 16.8203 25.5906 16.9258 25.4266 17.0664C25.2703 17.1992 25.1453 17.3672 25.0516 17.5703C24.9578 17.7734 24.9109 18.0117 24.9109 18.2852C24.9109 18.668 25.0281 19.0352 25.2625 19.3867C25.5047 19.7305 25.8055 20.0742 26.1648 20.418C26.5242 20.7539 26.9109 21.0938 27.325 21.4375C27.7469 21.7812 28.1375 22.1406 28.4969 22.5156C28.8563 22.8906 29.1531 23.293 29.3875 23.7227C29.6297 24.1445 29.7508 24.6016 29.7508 25.0938C29.7508 25.4922 29.6805 25.8828 29.5398 26.2656C29.3992 26.6406 29.1805 26.9766 28.8836 27.2734C28.5945 27.5703 28.2195 27.8125 27.7586 28C27.3055 28.1797 26.7625 28.2695 26.1297 28.2695C25.7547 28.2695 25.4031 28.2344 25.075 28.1641C24.7547 28.0938 24.4578 28.0078 24.1844 27.9062C23.9188 27.7969 23.6766 27.6797 23.4578 27.5547C23.2469 27.4219 23.0594 27.2969 22.8953 27.1797L23.0125 24.9531H23.2C23.2781 25.3203 23.3953 25.6562 23.5516 25.9609C23.7078 26.2656 23.8992 26.5273 24.1258 26.7461C24.3602 26.957 24.6258 27.125 24.9227 27.25C25.2195 27.3672 25.5438 27.4258 25.8953 27.4258C26.4734 27.4258 26.9305 27.2656 27.2664 26.9453C27.6102 26.625 27.782 26.207 27.782 25.6914C27.782 25.2773 27.6648 24.8984 27.4305 24.5547C27.2039 24.2031 26.9148 23.8672 26.5633 23.5469C26.2117 23.2266 25.8328 22.9062 25.4266 22.5859C25.0281 22.2656 24.6531 21.9258 24.3016 21.5664C23.95 21.1992 23.657 20.8008 23.4227 20.3711C23.1961 19.9336 23.0828 19.4375 23.0828 18.8828C23.0828 18.4297 23.1648 18.0156 23.3289 17.6406C23.5008 17.2578 23.7352 16.9336 24.032 16.668C24.3367 16.3945 24.6961 16.1836 25.1102 16.0352C25.5242 15.8867 25.9773 15.8125 26.4695 15.8125C27.118 15.8125 27.657 15.8828 28.0867 16.0234C28.5242 16.1562 28.8563 16.2852 29.0828 16.4102L29.2 18.3555Z" fill="#1E1E1E"/>
</svg>
